Coordinates
version=1
nRows=20
nColumns=38
inDegrees=no

Units are S.I. units (second, meters, Newtons, ...)
If the header above contains a line with 'inDegrees', this indicates whether rotational values are in degrees (yes) or radians (no).

endheader
time	pelvis_tilt	pelvis_list	pelvis_rotation	pelvis_tx	pelvis_ty	pelvis_tz	hip_flexion_r	hip_adduction_r	hip_rotation_r	knee_angle_r	ankle_angle_r	subtalar_angle_r	mtp_angle_r	hip_flexion_l	hip_adduction_l	hip_rotation_l	knee_angle_l	ankle_angle_l	subtalar_angle_l	mtp_angle_l	lumbar_extension	lumbar_bending	lumbar_rotation	arm_flex_r	arm_add_r	arm_rot_r	elbow_flex_r	pro_sup_r	wrist_flex_r	wrist_dev_r	arm_flex_l	arm_add_l	arm_rot_l	elbow_flex_l	pro_sup_l	wrist_flex_l	wrist_dev_l
3.04	-0.0388405	1.3432	1.57208	0.665222	-0.0376271	1.01542	0.498068	0.0126833	0.164719	0.53073	-0.151515	0	0	0.339611	0.00613254	-0.0196052	0.375245	-0.201087	0	0	-0.300181	0.0349867	-0.0369306	-0.16013	-0.182697	-0.0732288	1.1382	1.53777	0	0	-0.203675	-0.0993576	-0.317383	1.03829	1.5708	0	0
3.05	-0.0352277	1.34515	1.56857	0.66451	-0.0361326	1.01568	0.493239	0.0131383	0.165842	0.528825	-0.150149	0	0	0.335355	0.0057846	-0.0190134	0.373873	-0.200607	0	0	-0.300179	0.0361283	-0.0394793	-0.160323	-0.182776	-0.0732934	1.13564	1.54038	0	0	-0.206081	-0.0967102	-0.320342	1.03626	1.5708	0	0
3.06	-0.0327362	1.34742	1.56509	0.663863	-0.0346581	1.01597	0.488178	0.0138075	0.16841	0.526909	-0.148672	0	0	0.330187	0.00534808	-0.0197903	0.370942	-0.200591	0	0	-0.300642	0.0368758	-0.0407788	-0.160523	-0.183254	-0.0732178	1.13318	1.54334	0	0	-0.208395	-0.0937672	-0.323149	1.03428	1.5708	0	0
3.07	-0.0320302	1.34974	1.56249	0.663292	-0.0332481	1.01624	0.483446	0.0143166	0.17175	0.525244	-0.147282	0	0	0.324154	0.00502715	-0.0212233	0.366504	-0.200936	0	0	-0.301229	0.0369936	-0.0407316	-0.161053	-0.184162	-0.0731063	1.13123	1.54552	0	0	-0.210548	-0.0910276	-0.3251	1.03253	1.5708	0	0
3.08	-0.033255	1.35187	1.56132	0.662805	-0.0318951	1.01646	0.479351	0.0144377	0.174999	0.523983	-0.146172	0	0	0.317747	0.0049539	-0.0233634	0.361293	-0.201337	0	0	-0.301516	0.0364461	-0.0395721	-0.16203	-0.185585	-0.072823	1.12974	1.54619	0	0	-0.212238	-0.0887333	-0.326358	1.0309	1.5708	0	0
3.09	-0.0358715	1.35395	1.56146	0.662354	-0.0306227	1.01667	0.475473	0.014265	0.177966	0.523126	-0.145176	0	0	0.311294	0.00533478	-0.0260983	0.355515	-0.201963	0	0	-0.301759	0.0355012	-0.0377701	-0.163295	-0.187573	-0.0724662	1.12865	1.54628	0	0	-0.213549	-0.0868703	-0.326921	1.02927	1.5708	0	0
3.1	-0.0406427	1.35904	1.56377	0.661903	-0.0293895	1.01722	0.467754	0.0133926	0.180279	0.520938	-0.142334	0	0	0.300286	0.00655727	-0.0300422	0.345437	-0.205974	0	0	-0.305859	0.0339276	-0.0357507	-0.164193	-0.191087	-0.0699284	1.12908	1.53634	0	0	-0.214376	-0.0851815	-0.327522	1.02885	1.5708	0	0
3.11	-0.046239	1.36196	1.56831	0.661331	-0.0282726	1.01759	0.462862	0.0115763	0.180465	0.519672	-0.141495	0	0	0.293415	0.00861463	-0.0324483	0.339891	-0.207257	0	0	-0.307423	0.0328023	-0.0350911	-0.165426	-0.193966	-0.0683968	1.12955	1.53191	0	0	-0.215337	-0.083989	-0.327163	1.02796	1.5708	0	0
3.12	-0.0535183	1.36498	1.57487	0.660765	-0.0271839	1.01799	0.457788	0.00917759	0.179783	0.518185	-0.140735	0	0	0.286655	0.0111258	-0.035124	0.334793	-0.208407	0	0	-0.309198	0.0314447	-0.0348982	-0.166549	-0.197216	-0.0662337	1.13024	1.52766	0	0	-0.216365	-0.0828216	-0.326983	1.02736	1.5708	0	0
3.13	-0.0597911	1.36769	1.58022	0.660311	-0.0260685	1.01835	0.452927	0.00723985	0.17916	0.516511	-0.14001	0	0	0.280316	0.0130734	-0.0382448	0.330002	-0.209412	0	0	-0.310558	0.0301485	-0.0345066	-0.167734	-0.200746	-0.063535	1.13103	1.52329	0	0	-0.217749	-0.0814631	-0.327521	1.02711	1.5708	0	0
3.14	-0.0632757	1.37058	1.58332	0.659884	-0.0249537	1.01872	0.447741	0.00568322	0.177326	0.514644	-0.139188	0	0	0.273824	0.014356	-0.0402407	0.32509	-0.210703	0	0	-0.312246	0.0294564	-0.0347862	-0.168674	-0.204934	-0.0594809	1.13224	1.51678	0	0	-0.21935	-0.0797067	-0.329261	1.02772	1.5708	0	0
3.15	-0.064393	1.37314	1.58451	0.659457	-0.0238528	1.01902	0.442933	0.0044032	0.1743	0.51286	-0.138423	0	0	0.267932	0.01506	-0.0412707	0.320695	-0.211789	0	0	-0.313501	0.0291605	-0.0353738	-0.169658	-0.209376	-0.0548209	1.1338	1.50883	0	0	-0.221298	-0.0777257	-0.331442	1.02903	1.5708	0	0
3.16	-0.0636512	1.37394	1.58387	0.659083	-0.0227946	1.01915	0.440214	0.00366705	0.171624	0.511496	-0.138529	0	0	0.264658	0.0151953	-0.0416874	0.318213	-0.211321	0	0	-0.311988	0.0293218	-0.0335207	-0.17275	-0.211214	-0.056526	1.13521	1.52015	0	0	-0.22171	-0.0772177	-0.329406	1.02826	1.5708	0	0
3.17	-0.0622771	1.37592	1.58245	0.658745	-0.0217261	1.0194	0.435818	0.00313408	0.168898	0.509187	-0.137743	0	0	0.259473	0.0151404	-0.0417336	0.313898	-0.212369	0	0	-0.312544	0.0290296	-0.0338529	-0.173614	-0.216304	-0.0508515	1.13679	1.51193	0	0	-0.224088	-0.0746131	-0.333091	1.03088	1.5708	0	0
3.18	-0.0609426	1.37732	1.58113	0.658407	-0.0206722	1.01956	0.432233	0.00259821	0.166402	0.507137	-0.137059	0	0	0.255171	0.0150593	-0.0414308	0.310231	-0.213084	0	0	-0.312241	0.0285657	-0.0341871	-0.174587	-0.221983	-0.0443316	1.1386	1.50296	0	0	-0.226718	-0.071853	-0.337099	1.0339	1.5708	0	0
3.19	-0.0602826	1.37851	1.58034	0.658077	-0.0196292	1.01968	0.429101	0.0020006	0.164102	0.505605	-0.136404	0	0	0.251138	0.0150861	-0.0411482	0.306778	-0.213697	0	0	-0.311526	0.0278812	-0.0342421	-0.17573	-0.228285	-0.0370687	1.14089	1.4926	0	0	-0.229371	-0.0689839	-0.34111	1.03716	1.5708	0	0
3.2	-0.0605937	1.38125	1.57997	0.657812	-0.0186005	1.01995	0.424176	0.0015056	0.162772	0.503532	-0.134887	0	0	0.24457	0.015238	-0.041592	0.301143	-0.215562	0	0	-0.313551	0.0263413	-0.0365493	-0.174118	-0.23977	-0.01884	1.14466	1.44511	0	0	-0.234154	-0.0639394	-0.35068	1.0446	1.5708	0	0
3.21	-0.0612849	1.38267	1.57974	0.657614	-0.0176441	1.02011	0.421219	0.00122219	0.162632	0.502372	-0.134221	0	0	0.240155	0.0154047	-0.0421813	0.297508	-0.216154	0	0	-0.313352	0.0251843	-0.0353613	-0.175698	-0.246635	-0.0113341	1.14927	1.43067	0	0	-0.236901	-0.0619289	-0.352568	1.04906	1.5708	0	0
3.22	-0.0635754	1.3842	1.58129	0.657437	-0.0166858	1.02026	0.418518	0.00054676	0.162238	0.501962	-0.133367	0	0	0.235526	0.0159387	-0.0428839	0.293564	-0.216903	0	0	-0.313295	0.0236915	-0.0342506	-0.177463	-0.253308	-0.00411199	1.15471	1.41565	0	0	-0.240211	-0.0608041	-0.353324	1.05457	1.5708	0	0
3.23	-0.0658733	1.38577	1.58312	0.657263	-0.015734	1.02041	0.415685	-0.000185649	0.161806	0.501604	-0.132331	0	0	0.230761	0.016522	-0.0434227	0.289318	-0.217922	0	0	-0.313314	0.0222411	-0.0332541	-0.179317	-0.260098	0.00321345	1.16075	1.39959	0	0	-0.243403	-0.0603793	-0.353311	1.06092	1.5708	0	0
